<?xml version="1.0" encoding="UTF-8"?>
<svg width="109px" height="95px" viewBox="0 0 109 95" version="1.1" xmlns="http://www.w3.org/2000/svg" xmlns:xlink="http://www.w3.org/1999/xlink">
    <title>Decorative leaves</title>
    <g id="Page-1" stroke="none" stroke-width="1" fill="none" fill-rule="evenodd">
        <g id="1440-Desktop---E-Book-Cover" transform="translate(-1219.000000, -883.000000)" fill="#537087">
            <path d="M1275.65712,902.307207 C1279.18556,897.600168 1282.13369,892.381 1283.76579,886.705108 C1284.29945,884.862166 1284.74504,882.273035 1282.56373,881.309361 C1280.47569,880.382453 1278.00941,881.723622 1276.33587,882.894427 C1273.94213,884.556648 1272.00434,886.762069 1270.09246,888.937457 C1267.77643,891.583548 1265.45005,894.218764 1263.11849,896.849838 C1258.39318,902.167394 1253.63161,907.459576 1248.83377,912.716028 C1247.04624,914.672893 1245.25352,916.625097 1243.45563,918.572123 C1241.53338,922.906326 1239.60596,927.24053 1237.69407,931.579913 C1237.15522,932.80716 1236.61637,934.029748 1236.07752,935.256477 C1240.61112,932.776609 1245.01,930.037309 1249.23791,927.054631 C1259.04084,920.146314 1268.44482,911.939289 1275.65712,902.307207 M1292.51692,985.325077 C1289.52216,983.533399 1286.06626,982.347577 1282.86943,980.954625 C1279.25291,979.370077 1275.6364,977.791226 1272.01988,976.206678 C1264.94747,973.10956 1257.86988,970.018657 1250.79228,966.921539 C1243.08258,963.545831 1234.80811,960.365862 1227.35229,956.042014 C1226.5492,958.056358 1225.76683,960.076397 1225,962.101097 C1229.10355,966.052109 1233.54389,969.676892 1237.93241,973.161861 C1248.70424,981.726186 1260.47605,989.405546 1273.77633,993.362254 C1277.01461,994.324893 1280.32025,995.060206 1283.66734,995.515893 C1286.44968,995.899084 1289.44444,996.32888 1292.21641,995.619458 C1294.19565,995.112506 1296.02981,993.854189 1296.35623,991.705211 C1296.7811,988.945198 1294.71378,986.640355 1292.51692,985.325077 M1289.6776,931.906143 C1296.90545,929.390026 1304.14366,926.365922 1310.50106,922.046735 C1315.60459,918.577301 1320.55787,913.75634 1321.77547,907.454398 C1322.26769,904.896337 1322.1537,901.758311 1319.13303,900.992447 C1315.7963,900.14839 1312.53729,903.00679 1309.92076,904.637424 C1302.56856,909.215524 1295.14382,913.673488 1287.65173,918.018567 C1280.28916,922.279757 1272.9007,926.551822 1265.27907,930.342826 C1255.06164,935.422182 1244.28981,938.901973 1233.30037,941.683216 C1232.6009,943.303494 1231.91179,944.929986 1231.22787,946.561138 C1242.90123,945.57209 1254.44507,942.206221 1265.65212,939.104443 C1273.70379,936.872095 1281.78655,934.656317 1289.6776,931.906143 M1311.53731,955.213493 C1303.3043,954.80441 1295.08683,955.737015 1286.86418,955.850419 C1278.61044,955.969519 1270.33079,955.229028 1262.12369,954.457985 C1251.32077,953.442528 1240.52822,951.982776 1229.91183,949.730233 C1229.08283,951.718167 1228.27455,953.716976 1227.48182,955.716302 C1229.4507,956.596606 1231.46621,957.378523 1233.52316,958.056358 C1241.34168,960.614936 1249.53324,962.266801 1257.616,963.742605 C1273.84368,966.709231 1290.43406,968.304135 1306.93635,968.16484 C1310.51142,968.133252 1314.12794,967.9313 1317.59419,967.004392 C1320.39207,966.248366 1324.09667,964.94914 1325.50597,962.178253 C1328.79607,955.716302 1314.69269,955.369358 1311.53731,955.213493" id="Decorative-leaves" transform="translate(1275.500000, 938.500000) rotate(-111.000000) translate(-1275.500000, -938.500000) "></path>
        </g>
    </g>
</svg>