<?xml version="1.0" encoding="UTF-8"?>
<svg width="302px" height="308px" viewBox="0 0 302 308" version="1.1" xmlns="http://www.w3.org/2000/svg" xmlns:xlink="http://www.w3.org/1999/xlink">
    <title>Group 7</title>
    <defs>
        <polygon id="path-1" points="0 0 302 0 302 308 0 308"></polygon>
    </defs>
    <g id="Page-1" stroke="none" stroke-width="1" fill="none" fill-rule="evenodd">
        <g id="1440-Desktop---E-Book-Cover" transform="translate(-1050.000000, -716.000000)">
            <g id="Decorative-Fern-leaves" transform="translate(923.000000, 734.000000)">
                <g id="Group-7" transform="translate(127.000000, -18.000000)">
                    <g id="Group-3">
                        <mask id="mask-2" fill="white">
                            <use xlink:href="#path-1"></use>
                        </mask>
                        <g id="Clip-2"></g>
                        <path d="M266.836221,246.273878 C272.331576,239.604308 277.277858,232.627693 281.605855,225.468698 C282.62095,223.792648 283.061593,221.807245 282.796284,219.865705 C275.000815,162.898481 201.669421,105.889702 239.966191,119.418148 C262.268293,127.292811 275.247668,156.47824 282.452536,181.438916 C285.001809,190.273961 297.778165,189.888423 299.667627,180.889467 C308.720429,137.806215 292.185914,96.8561166 236.595614,82.2795624 C233.979437,81.5939057 231.852352,79.6962295 230.781888,77.2098581 C223.270184,59.7567776 190.208074,-7.81619395 131.842412,0.746435074 C122.436633,2.12698297 121.476907,15.5030608 130.621991,18.1002454 C149.738078,23.5324012 168.655759,34.0319528 179.789507,53.8190365 C180.793067,55.6035909 181.199105,57.7228935 180.737698,59.7198399 C180.061737,62.6517727 177.577061,65.4359546 169.377861,61.0357467 C157.162114,54.4908416 128.490291,23.2415166 81.4475537,26.3650639 C79.6665232,26.4828029 77.9639318,27.1638424 76.5704831,28.2789004 C74.0996493,30.2573779 71.6657281,32.302805 69.2733334,34.4128732 C63.4503787,39.5518358 66.5118133,49.1117837 74.2265362,49.9752033 C121.836804,55.3150148 157.879602,84.8675126 161.907684,96.5744664 C166.653254,110.444586 158.70552,104.836976 158.70552,104.836976 C119.006073,62.8780164 72.0348536,65.2697348 45.3678434,71.4198679 C37.9461139,73.1305468 31.5833131,77.8285652 27.6244422,84.3365326 C24.9136768,88.8013815 22.3667109,93.3585747 20.0043077,97.9896434 C16.3891849,105.074763 23.2087784,112.967896 30.7597019,110.474598 C89.6259905,91.0176457 130.065996,123.700617 137.397751,130.43021 C141.645001,134.32945 138.978069,146.11028 122.129798,138.847397 C54.1853287,109.546538 22.4266938,133.659954 5.56457966,145.897888 C3.69818887,147.253041 2.40624963,149.27769 2.03020303,151.556287 C0.710579376,159.53253 0.0138550004,167.531858 0,175.473471 C-0.0115223775,182.498567 7.77933265,186.781036 13.6876476,182.985684 C64.5231497,150.30733 109.655663,167.257134 112.285682,171.671193 C117.317324,180.097614 105.590668,179.818273 103.165975,179.67283 C102.898359,179.658979 102.635357,179.626658 102.374662,179.582795 C47.1419528,170.505346 24.791404,199.429902 10.9930315,213.517031 C8.52219771,216.038032 7.75856934,219.791829 9.10818443,223.056202 C15.6647761,238.914034 25.9564563,253.78609 40.5876682,266.949776 C43.7321561,269.78013 48.4615765,269.950967 51.8390748,267.399954 C77.7401495,247.841423 113.060846,215.137675 110.813794,241.633575 C109.348827,258.821165 92.6966533,269.027523 77.3179622,274.842908 C70.0715673,277.583227 69.6978277,287.667229 76.6143167,291.150919 C79.0320888,292.372173 81.5121507,293.558798 84.0614237,294.720028 C91.1670895,297.949771 98.2589131,300.549264 105.306903,302.553136 C108.160705,303.363458 111.233674,302.728591 113.524559,300.849383 C156.063966,265.950148 149.924948,235.896682 153.593132,226.643779 C155.930158,220.73605 159.010049,221.576384 161.072538,223.150855 C162.403696,224.168951 163.386493,225.600288 163.907883,227.193228 C172.199364,252.537133 156.525373,276.078014 141.654229,293.279456 C136.59721,299.131779 140.918285,308.255399 148.64685,307.994527 C163.11657,307.509719 177.108733,304.764783 190.355725,300.214516 C192.815023,299.369565 194.743704,297.430334 195.689588,295.006295 C209.070387,260.728076 197.385258,223.395567 189.156067,202.588079 C179.155073,177.158756 174.280309,165.48874 183.953704,163.009294 C188.164042,161.940408 222.430423,189.62755 211.098271,274.986042 C210.097018,282.514414 218.406955,287.637217 224.808976,283.557905 C230.225892,280.108844 235.435176,276.361973 240.411449,272.372697 C242.413955,270.765906 243.562858,268.337249 243.689745,265.770077 C246.54816,206.773586 208.154495,169.568051 226.257793,166.393714 C234.874567,164.879267 251.522127,201.920891 251.10686,240.525442 C251.016886,248.861828 261.534656,252.705661 266.836221,246.273878" id="Fill-1" fill="#9ABFB6" mask="url(#mask-2)"></path>
                    </g>
                </g>
            </g>
        </g>
    </g>
</svg>