<?xml version="1.0" encoding="UTF-8"?>
<svg width="269px" height="183px" viewBox="0 0 269 183" version="1.1" xmlns="http://www.w3.org/2000/svg" xmlns:xlink="http://www.w3.org/1999/xlink">
    <title>Fill 1</title>
    <g id="Page-1" stroke="none" stroke-width="1" fill="none" fill-rule="evenodd">
        <g id="1440-Desktop---E-Book-Cover" transform="translate(-280.000000, 0.000000)" fill="#537087">
            <g id="Decorative-fern-leaves-top" transform="translate(400.500000, 63.500000) rotate(-87.000000) translate(-400.500000, -63.500000) translate(211.000000, -126.000000)">
                <g id="Group-3" transform="translate(189.500000, 189.500000) rotate(37.000000) translate(-189.500000, -189.500000) translate(53.000000, 56.000000)">
                    <path d="M102.013875,156.230035 C102.013875,156.230035 112.345435,143.091773 117.998885,154.935315 C123.481398,166.421866 95.7948295,169.335614 102.013875,156.230035 M171.190074,85.5081748 C192.335839,85.2492309 192.893894,111.382455 180.475912,102.409922 C168.050389,93.4172776 166.361141,85.5710253 171.190074,85.5081748 M159.69716,74.8914739 C154.747563,90.5186141 126.437582,52.1647449 73.985435,47.7023618 C71.7029395,47.5087823 69.4229579,48.2353337 67.7663891,49.8141375 C63.6513616,53.7410346 59.7248662,57.9017356 56.0346643,62.2811561 C51.6732882,67.4550066 55.2126643,75.4118758 61.9797102,75.4194178 C138.722334,75.5199786 159.113967,109.094698 157.671068,112.689745 C154.330279,120.948296 144.602022,115.254044 123.328059,103.397932 C105.925288,93.6586234 74.3398753,78.9038477 42.475435,86.6646234 C40.2180772,87.2151935 38.2724258,88.6959505 37.2317285,90.775044 C31.6461506,101.934773 27.5612882,113.971894 25.4145359,126.700371 C24.2682606,133.510848 31.8196001,138.41067 37.5987377,134.627072 C54.5515451,123.52768 77.1879671,112.478567 98.5800772,122.791072 C99.9324808,123.444717 101.091325,124.485521 101.835398,125.79281 C102.97916,127.801511 103.348683,130.619726 97.8611414,131.984838 C89.2515084,134.129296 63.425123,125.139165 27.5512331,158.618352 C25.6055817,160.43096 24.7056551,163.088278 25.0852331,165.715427 C26.0228662,172.171427 27.4758203,178.730502 29.4792882,185.380081 C30.2057652,187.785997 30.9649212,190.131577 31.7592698,192.426876 C34.0392515,199.006063 42.970646,199.740156 46.2812698,193.616007 C53.2443891,180.734175 64.2219854,167.281661 79.5433616,168.02581 C103.207912,169.179745 70.1620038,196.507128 49.8080772,217.084371 C47.1485175,219.774371 46.7211781,223.985352 48.8578753,227.112792 C58.7344441,241.583483 70.6345909,252.436502 83.8393799,260.104259 C86.5693249,261.690605 90.003123,261.499539 92.5319671,259.606483 C106.609031,249.077773 134.826004,232.749222 133.35294,182.828352 C133.345398,182.587007 133.347912,182.358231 133.368022,182.116885 C133.531417,179.924661 134.685233,169.581988 141.520151,175.01981 C145.104774,177.86568 154.722426,219.771857 119.828903,260.835838 C115.789288,265.587334 118.599673,272.998661 124.781013,273.820745 C131.812004,274.75596 138.981251,275.08781 146.200774,274.869091 C148.264573,274.80624 150.20771,273.901194 151.633013,272.402838 C164.445655,258.94781 189.495288,233.724661 171.680261,170.207979 C167.261068,154.452623 177.984774,153.489754 180.925875,157.710792 C185.998646,164.986362 210.07294,204.614838 185.898096,254.34967 C182.801141,260.722708 188.962371,267.686539 195.648976,265.330904 C202.375802,262.962698 208.999563,260.19225 215.454903,257.049726 C217.106444,256.24524 218.418628,254.88767 219.172756,253.215848 C228.415857,232.76682 242.153563,186.609437 206.058462,141.90767 C206.058462,141.90767 202.049013,134.214773 213.73549,140.054838 C223.59949,145.002427 245.421453,180.359586 244.498903,223.075278 C244.348077,230.006427 252.417251,233.862932 257.650903,229.317586 C259.800169,227.452184 261.89916,225.54153 263.93782,223.593165 C265.089123,222.492025 265.893527,221.059035 266.210261,219.500343 C274.545894,178.285521 250.345912,149.241063 246.014701,137.664007 C243.101251,129.893175 245.856334,128.027773 248.523435,127.778885 C250.343398,127.607932 252.165875,128.216324 253.626371,129.317465 C269.777288,141.502913 276.810793,159.465577 279.339637,177.005885 C280.55127,185.405222 292.489123,186.126745 294.821894,177.96624 C309.28105,127.399268 253.533362,90.1741935 239.013875,81.4656328 C236.94505,80.2262216 235.517233,78.1219879 235.223123,75.7261281 C228.948774,24.9228384 194.824462,5.43416549 155.755582,8.26746455 C147.520499,8.86328698 145.54971,20.1185487 153.108591,23.4496234 C174.294573,32.7766328 198.509637,47.7073898 202.820738,68.3449692 C210.226279,103.800175 168.568224,32.2185206 119.175325,18.5724272 C117.488591,18.1073337 115.68371,18.2606889 114.082444,18.959586 C107.242499,21.9386982 100.49305,25.4859786 93.9472148,29.5536608 C87.6125359,33.4956421 89.8145909,43.2299225 97.2201322,44.1450253 C131.346958,48.3660627 162.057582,67.4600346 159.69716,74.8914739" id="Fill-1" transform="translate(161.097463, 141.466925) rotate(108.000000) translate(-161.097463, -141.466925) "></path>
                </g>
            </g>
        </g>
    </g>
</svg>