<?xml version="1.0" encoding="UTF-8"?>
<svg width="16px" height="16px" viewBox="0 0 16 16" version="1.1" xmlns="http://www.w3.org/2000/svg" xmlns:xlink="http://www.w3.org/1999/xlink">
    <title>linkedin</title>
    <g id="Page-1" stroke="none" stroke-width="1" fill="none" fill-rule="evenodd">
        <g id="1440-Desktop---E-Book-Cover" transform="translate(-1314.000000, -504.000000)" fill="#F7F9F6" fill-rule="nonzero">
            <g id="Social-share-bar" transform="translate(1301.000000, 374.000000)">
                <g id="linkedin" transform="translate(13.000000, 130.000000)">
                    <path d="M15.9957653,16 L15.9957653,15.9993335 L16,15.9993335 L16,10.1331009 C16,7.26329888 15.3457411,5.05263158 11.7928397,5.05263158 C10.0848498,5.05263158 8.93866153,5.93769826 8.47072875,6.77677879 L8.42132409,6.77677879 L8.42132409,5.32055086 L5.05263158,5.32055086 L5.05263158,15.9993335 L8.56036293,15.9993335 L8.56036293,10.7115933 C8.56036293,9.31934609 8.83985219,7.97308503 10.6657075,7.97308503 C12.4647432,7.97308503 12.4915629,9.56193967 12.4915629,10.8008997 L12.4915629,16 L15.9957653,16 Z" id="Path"></path>
                    <polygon id="Path" points="9.39433935e-17 5.05263158 4.21052632 5.05263158 4.21052632 16 0 16"></polygon>
                    <path d="M2.10526316,0 C0.943058549,0 0,0.938661626 0,2.09544756 C0,3.2522335 0.943058549,4.21052632 2.10526316,4.21052632 C3.26746777,4.21052632 4.21052632,3.2522335 4.21052632,2.09544756 C4.20979583,0.938661626 3.26673728,0 2.10526316,0 Z" id="Path"></path>
                </g>
            </g>
        </g>
    </g>
</svg>